<svg width="64" height="64" fill="none" xmlns="http://www.w3.org/2000/svg"><path d="M23.597 23.23v7.973H32v2.657h-5.143m-3.26 0v9.569H20.57V20.57h17.143v2.658H26.857" stroke="#00EAFF"/><path d="M46.857 26.286h-4.245l-3.183 4.383-3.184-4.383H32m2.56 3.474l3.058 4.21v9.459h3.933V33.97l3.249-4.21" stroke="#fff"/><circle cx="44.48" cy="30.08" r=".96" fill="#A7A7A7"/><circle cx="47.04" cy="26.24" r=".96" fill="#A7A7A7"/><circle cx="31.68" cy="26.24" r=".96" fill="#A7A7A7"/><circle cx="34.24" cy="30.08" r=".96" fill="#A7A7A7"/><mask id="a" fill="#fff"><path d="M32.91.013A32 32 0 1064 32.095l-7.18-.021A24.82 24.82 0 1132.707 7.189L32.91.013z"/></mask><path d="M32.91.013A32 32 0 1064 32.095l-7.18-.021A24.82 24.82 0 1132.707 7.189L32.91.013z" stroke="#00EAFF" stroke-width="2" mask="url(#a)"/><path d="M32.91.013A32 32 0 1064 32.095l-7.18-.021A24.82 24.82 0 1132.707 7.189L32.91.013z" stroke="#000" stroke-opacity=".2" stroke-width="2" mask="url(#a)"/><circle cx="26.56" cy="23.04" r=".96" fill="#006C85"/><circle cx="26.56" cy="33.92" r=".96" fill="#006C85"/></svg>