<svg width="26" height="26" fill="none" xmlns="http://www.w3.org/2000/svg"><g clip-path="url(#a)"><path d="M0 0h26v26H0" fill="#4175FA"/><path d="M17.575 10.76c-3.727 0-3.732 3.713-3.732 3.733 0 0-.254 3.717 3.732 3.717 0 0 3.326.188 3.326-2.584h-1.706s.056 1.046-1.559 1.046c0 0-1.706.112-1.706-1.686h5.032s.554-4.22-3.382-4.22l-.005-.005zm-1.67 2.92s.208-1.492 1.706-1.492c1.503 0 1.477 1.493 1.477 1.493H15.9h.006zm-4.266-.954s1.478-.107 1.478-1.848c0-1.737-1.209-2.585-2.748-2.585H5.312v9.72h5.052s3.088.096 3.088-2.87c0 0 .132-2.412-1.818-2.412l.005-.005zm-4.093-2.712h2.828s.686 0 .686 1.011c0 1.01-.401 1.158-.858 1.158H7.55v-2.168h-.005zm2.686 6.267H7.546v-2.6h2.828s1.026-.01 1.021 1.34c0 1.138-.762 1.255-1.163 1.265v-.005zm5.256-7.42v1.2H19.5v-1.2h-4.012z" fill="#fff"/></g><defs><clipPath id="a"><path fill="#fff" d="M0 0H26V26H0z"/></clipPath></defs></svg>