<svg width="46" height="49" fill="none" xmlns="http://www.w3.org/2000/svg"><path fill-rule="evenodd" clip-rule="evenodd" d="M1.056 4.89v33.15h33.95v-1.508H2.472V6.396h41.02V35.78h1.414V4.888l-43.85.001zm4.95 3.013V18.55c-1.217.337-2.123 1.52-2.123 2.916s.906 2.58 2.122 2.918v10.641H7.42v-10.64c1.216-.338 2.124-1.523 2.124-2.919 0-1.395-.907-2.578-2.124-2.916V7.903H6.005zm4.953 0v27.093l-.002.03h21.925V33.52c-.444 0-.706-.03-1.117-.19 0 0-5.248-2.466-5.248-9.705 0-2.635-.665-4.572-1.755-5.968-1.089-1.396-2.551-2.23-4.072-2.857-3.041-1.256-6.33-1.817-8.04-3.782l-.275-.318V9.41h6.598c1.23 2.904 3.996 4.922 7.193 4.922 3.198 0 5.961-2.016 7.19-4.922h7.305v1.32l-.209.338c-2.236 3.649-6.627 6.54-10.844 7.095l-.7.096.172 1.49.705-.09c4.126-.542 8.242-2.991 10.875-6.364V32.01h1.414V7.903H10.96zm1.416 4.89c2.197 1.882 5.289 2.375 7.804 3.413 1.411.583 2.632 1.303 3.498 2.413.866 1.11 1.425 2.631 1.425 5.006 0 5.248 2.593 8.364 4.39 9.894h-5.2a3.858 3.858 0 00-.646-3.787 2.23 2.23 0 01-.229-2.56c.777-1.381.622-3.128-.371-4.315-.994-1.188-2.606-1.563-4-.929-.851.389-1.795.164-2.406-.566-1.007-1.203-2.614-1.585-3.99-.958a3.35 3.35 0 00-.275.143v-7.753zM22.2 26.4c-.776 1.382-.616 3.135.39 4.338.612.73.694 1.73.241 2.535l-.137.246h-3.95c.202-.72.211-1.476.07-2.193-.221-1.127-.788-2.18-1.54-3.047-.753-.866-1.695-1.552-2.73-1.897a4.122 4.122 0 00-2.17-.144v-3.774c.482-.598.964-.739 1.626-.854.587-.005 1.164.256 1.585.758 1.006 1.203 2.622 1.58 4.015.945a1.994 1.994 0 012.389.546c.591.703.68 1.705.21 2.541zm8.64-4.734l-1.018.713.198 4.455.11.172c3.265 5.28 6.618 10.692 9.779 15.795a2.731 2.731 0 001.733 1.251c.711.156 1.456 0 2.067-.428a2.931 2.931 0 001.18-1.852 3.082 3.082 0 00-.397-2.191c-3.258-5.265-6.522-10.536-9.779-15.795l-.109-.173-3.764-1.947zm.454 1.909l2.345 1.212.67 1.082-2.226 1.56-.668-1.08-.12-2.774zm3.794 3.552l.829 1.337-2.226 1.561-.827-1.336 2.224-1.562z" fill="#fff"/></svg>