<svg width="73" height="73" fill="none" xmlns="http://www.w3.org/2000/svg"><path d="M60.07 30.59h-2.638a21.48 21.48 0 00-1.959-4.708l1.869-1.869a.842.842 0 000-1.19l-7.167-7.171a.841.841 0 00-1.19 0l-1.868 1.868c-.888-.5-1.81-.938-2.761-1.308a.842.842 0 00-.606 1.572c1.069.415 2.1.922 3.08 1.515a.842.842 0 001.034-.124l1.717-1.756 5.999 6-1.734 1.734a.842.842 0 00-.124 1.032 19.778 19.778 0 012.245 5.455c.093.376.432.64.82.64h2.44v8.445h-2.44a.842.842 0 00-.82.64 19.789 19.789 0 01-2.245 5.455.842.842 0 00.124 1.033l1.734 1.728-6 6-1.734-1.735a.842.842 0 00-1.032-.124 19.789 19.789 0 01-5.455 2.245.841.841 0 00-.64.82v2.44h-8.446v-2.44a.841.841 0 00-.639-.82 19.779 19.779 0 01-5.455-2.245.843.843 0 00-1.033.124l-1.728 1.734-5.999-6 .69-.69a.843.843 0 00-1.173-1.167l-1.284 1.285a.842.842 0 000 1.19l7.171 7.172a.842.842 0 001.19 0l1.868-1.868a21.478 21.478 0 004.709 1.958v2.61c0 .464.377.841.842.841H41.55a.842.842 0 00.842-.841v-2.638a21.478 21.478 0 004.708-1.959l1.869 1.869a.842.842 0 001.19 0l7.171-7.171a.841.841 0 000-1.19l-1.868-1.869a21.474 21.474 0 001.959-4.708h2.648a.842.842 0 00.842-.843V31.45a.84.84 0 00-.842-.859zM16.662 45.417a.842.842 0 001.532-.69 19.93 19.93 0 01-1.168-3.367.84.84 0 00-.819-.64h-2.435v-8.447h2.44a.84.84 0 00.82-.639 19.79 19.79 0 012.245-5.455.843.843 0 00-.123-1.033l-1.734-1.728 5.998-5.999 1.735 1.735v-.001c.274.275.7.325 1.032.124a19.795 19.795 0 015.455-2.245.841.841 0 00.64-.82v-2.44h8.446v.84a.842.842 0 101.683 0V12.93a.841.841 0 00-.859-.842h-10.1a.842.842 0 00-.842.842v2.637a21.455 21.455 0 00-4.709 1.959l-1.868-1.869a.841.841 0 00-1.19 0l-7.189 7.166a.841.841 0 000 1.19l1.868 1.868a21.482 21.482 0 00-1.958 4.709H12.93a.842.842 0 00-.842.859V41.55c0 .465.377.842.842.842h2.638c.289 1.034.655 2.045 1.094 3.025z" fill="#fff"/><path d="M54.11 34.435a.87.87 0 00-.05-.157 17.62 17.62 0 00-3.593-8.631.826.826 0 00-.128-.163 17.678 17.678 0 00-27.695 0 .8.8 0 00-.112.14 17.62 17.62 0 00-3.592 8.632.875.875 0 00-.05.157.835.835 0 000 .297 17.607 17.607 0 003.086 11.87c.034.067.078.129.129.185a17.677 17.677 0 0028.806 0 .811.811 0 00.096-.13 17.607 17.607 0 003.11-11.902c.015-.1.013-.2-.006-.297h-.001zm-7.868 2.066a24.443 24.443 0 01-1.195 7.682 58.927 58.927 0 00-7.706-.561v-6.723c3.11 0 6.117-.168 8.9-.427v.029zm-19.485 0v-.034c2.806.259 5.786.404 8.9.427v6.705a58.851 58.851 0 00-7.704.562 24.44 24.44 0 01-1.196-7.66zm-3.165-9.462c.92.252 1.93.476 3.014.673a24.822 24.822 0 00-1.448 6.897 60.903 60.903 0 01-4.455-.668h-.001a15.945 15.945 0 012.89-6.902zm4.68.937c2.454.34 4.926.528 7.402.562v6.677c-3.097 0-6.089-.168-8.844-.426a23.34 23.34 0 011.426-6.813h.017zm15.77-1.577c-2.223.282-4.46.435-6.701.46V20.54c2.694.382 5.079 2.576 6.7 5.859zm-8.385-5.859v6.297a58.341 58.341 0 01-6.7-.438c1.621-3.288 4.007-5.477 6.7-5.859zm0 24.743v7.178c-2.918-.416-5.471-2.952-7.082-6.667a57.722 57.722 0 017.082-.51zm1.684 7.178v-7.178c2.37.025 4.734.196 7.082.511-1.61 3.715-4.163 6.252-7.082 6.667zm0-17.245V28.52c2.477-.033 4.95-.22 7.402-.561a23.323 23.323 0 011.442 6.807 97.06 97.06 0 01-8.844.449zm9.069-7.503a32.344 32.344 0 003.013-.674 15.93 15.93 0 012.896 6.903c-1.37.259-2.868.483-4.456.668a24.81 24.81 0 00-1.453-6.897zm1.83-2.105c-.775.191-1.611.36-2.493.51v.001a16.085 16.085 0 00-2.89-4.321 16.089 16.089 0 015.382 3.81zm-18.1-3.81a16.093 16.093 0 00-2.89 4.321 35.855 35.855 0 01-2.491-.51 16.1 16.1 0 015.381-3.811zM20.5 35.62a64.39 64.39 0 004.578.674v.202c-.01 2.7.402 5.385 1.224 7.957-1.09.198-2.169.452-3.233.763a15.929 15.929 0 01-2.57-9.596zm3.653 11.056c.847-.23 1.773-.438 2.76-.612.758 1.9 1.86 3.645 3.25 5.146a16.105 16.105 0 01-6.01-4.535zm18.705 4.528a16.645 16.645 0 003.249-5.163c.987.174 1.913.382 2.76.612h.001a16.109 16.109 0 01-6.01 4.551zm7.07-5.982a31.657 31.657 0 00-3.232-.763 25.777 25.777 0 001.23-7.958V36.3a65.46 65.46 0 004.578-.673v.88a15.924 15.924 0 01-2.575 8.716z" fill="#fff"/></svg>