<svg width="48" height="48" fill="none" xmlns="http://www.w3.org/2000/svg"><g clip-path="url(#a)"><path d="M14 40c.58 0 1.12-.12 1.52-.3 1.42-.74 2.42-1.76 3.42-4.76 1.02-3.12 2.94-4.58 4.78-6 1.58-1.22 3.22-2.48 4.64-5.06C29.42 21.96 30 19.86 30 18c0-5.6-4.4-10-10-10s-10 4.4-10 10H6c0-7.86 6.14-14 14-14s14 6.14 14 14c0 2.52-.76 5.3-2.14 7.8-1.82 3.3-3.96 4.96-5.7 6.3-1.62 1.24-2.78 2.14-3.42 4.1-1.2 3.64-2.74 5.68-5.46 7.1-1.02.46-2.14.7-3.28.7-4.42 0-8-3.58-8-8h4c0 2.2 1.8 4 4 4zM32.72 5.28l2.84-2.84A21.93 21.93 0 0142 18c0 6.08-2.46 11.58-6.44 15.56l-2.82-2.82C35.98 27.48 38 22.98 38 18s-2.02-9.48-5.28-12.72zM25 18c0 2.76-2.24 5-5 5s-5-2.24-5-5 2.24-5 5-5 5 2.24 5 5z" fill="#fff"/></g><defs><clipPath id="a"><path fill="#fff" transform="matrix(-1 0 0 1 48 0)" d="M0 0H48V48H0z"/></clipPath></defs></svg>