<svg width="37" height="37" fill="none" xmlns="http://www.w3.org/2000/svg"><g clip-path="url(#a)"><mask id="b" style="mask-type:luminance" maskUnits="userSpaceOnUse" x="22" y="22" width="15" height="15"><path d="M22.475 22.475h14.229v14.229h-14.23v-14.23z" fill="#fff"/></mask><g mask="url(#b)"><path d="M35.704 30.878l-8.353-8.354a16.07 16.07 0 01-4.826 4.827l8.353 8.353a3.412 3.412 0 104.826-4.826z" fill="#fff"/></g><mask id="c" style="mask-type:luminance" maskUnits="userSpaceOnUse" x="0" y="0" width="28" height="28"><path d="M.296.296h27.31v27.31H.296V.295z" fill="#fff"/></mask><g mask="url(#c)"><path d="M27.602 13.949c0-7.54-6.113-13.653-13.653-13.653S.296 6.409.296 13.949s6.113 13.653 13.653 13.653 13.653-6.114 13.653-13.653zm-13.653 10.24c-5.647 0-10.24-4.594-10.24-10.24 0-5.647 4.593-10.24 10.24-10.24 5.646 0 10.24 4.593 10.24 10.24 0 5.646-4.593 10.24-10.24 10.24z" fill="#fff"/></g><path d="M5.984 13.949H8.26a5.695 5.695 0 015.689-5.689V5.984c-4.391 0-7.965 3.574-7.965 7.965z" fill="#fff"/></g><defs><clipPath id="a"><path fill="#fff" d="M0 0H37V37H0z"/></clipPath></defs></svg>