<svg width="53" height="55" fill="none" xmlns="http://www.w3.org/2000/svg"><path d="M42.892 37.509c-.048-2.434-.077-4.869-.14-7.264l-.18-7.225a856.292 856.292 0 00-.199-7.176l-7.807-7.338a.581.581 0 00-.378-.155l-10.98-.2L12.223 8c-.52 0-.948.41-.97.93-.088 5.998-.166 11.972-.204 17.946L11 35.84v8.958A1.2 1.2 0 0012.198 46h7.453l7.448-.059 7.448-.053L42 45.8h.03-.001a.968.968 0 00.97-1.003l-.107-7.288zm-8.03-22.216c0-.934-.034-1.874-.092-2.809a43.084 43.084 0 00-.14-1.767l-.073-.614 6.433 5.526a48.78 48.78 0 00-2.911-.233 70.233 70.233 0 00-3.217-.103zM27.1 43.653l-7.448-.044H13.4v-7.756l-.048-8.977a1853.42 1853.42 0 00-.194-16.982l10.024-.136 10.64-.195c-.051.386-.1.771-.145 1.154-.054.59-.107 1.178-.14 1.768a57.285 57.285 0 00-.098 3.53v-.001a.716.716 0 00.723.716c1.305 0 2.61-.03 3.92-.108a43.55 43.55 0 003.538-.32c-.073 2.37-.146 4.736-.195 7.083l-.179 7.172c-.063 2.385-.092 4.756-.14 7.127l-.093 6.091-6.468-.078-7.447-.044z" fill="#fff"/></svg>