<svg width="58" height="59" fill="none" xmlns="http://www.w3.org/2000/svg"><path d="M54.534 49.721L49.83 36.653V10.51c0-1.249-.993-2.265-2.22-2.265H10.388c-1.227 0-2.22 1.016-2.22 2.265v26.143L3.465 49.722a.785.785 0 00.085.703c.143.21.377.331.622.331h49.653c.25 0 .479-.122.622-.33a.783.783 0 00.086-.704zm-8.55-37.556V33.64h-33.97V12.165h33.97zM9.447 37.553h39.105l2.203 6.119H7.25l2.197-6.12zm9.302 11.664H5.252l1.666-4.622h12.573l-.742 4.622zm.919 0l.742-4.621h17.55l.742 4.62H19.668zm19.952 0l-.748-4.622h12.214l1.661 4.621H39.62z" fill="#fff"/></svg>