<svg width="923" height="792" fill="none" xmlns="http://www.w3.org/2000/svg"><g filter="url(#a)"><mask id="b" fill="#fff"><path d="M909 457a446.6 446.6 0 00-52.84-210.714A447.18 447.18 0 00710.118 85.333a447.824 447.824 0 00-204.755-73.18 447.955 447.955 0 00-215.114 31.873 447.466 447.466 0 00-174.671 129.4 446.787 446.787 0 00-92.98 196.369A446.516 446.516 0 0033.27 586.757a446.898 446.898 0 00111.801 186.32l92.969-92.866a315.604 315.604 0 01-78.953-131.577 315.33 315.33 0 01-7.535-153.218 315.527 315.527 0 0165.661-138.674 315.996 315.996 0 01123.352-91.381 316.344 316.344 0 01151.912-22.509 316.24 316.24 0 01144.596 51.68 315.789 315.789 0 01103.134 113.663A315.392 315.392 0 01777.521 457H909z"/></mask><path d="M909 457a446.6 446.6 0 00-52.84-210.714A447.18 447.18 0 00710.118 85.333a447.824 447.824 0 00-204.755-73.18 447.955 447.955 0 00-215.114 31.873 447.466 447.466 0 00-174.671 129.4 446.787 446.787 0 00-92.98 196.369A446.516 446.516 0 0033.27 586.757a446.898 446.898 0 00111.801 186.32l92.969-92.866a315.604 315.604 0 01-78.953-131.577 315.33 315.33 0 01-7.535-153.218 315.527 315.527 0 0165.661-138.674 315.996 315.996 0 01123.352-91.381 316.344 316.344 0 01151.912-22.509 316.24 316.24 0 01144.596 51.68 315.789 315.789 0 01103.134 113.663A315.392 315.392 0 01777.521 457H909z" stroke="#00EAFF" stroke-width="6" shape-rendering="crispEdges" mask="url(#b)"/></g><defs><filter id="a" x="0" y="0" width="923" height="791.077" filterUnits="userSpaceOnUse" color-interpolation-filters="sRGB"><feFlood flood-opacity="0" result="BackgroundImageFix"/><feColorMatrix in="SourceAlpha" values="0 0 0 0 0 0 0 0 0 0 0 0 0 0 0 0 0 0 127 0" result="hardAlpha"/><feMorphology radius="10" operator="dilate" in="SourceAlpha" result="effect1_dropShadow_518_8391"/><feOffset dy="4"/><feGaussianBlur stdDeviation="2"/><feComposite in2="hardAlpha" operator="out"/><feColorMatrix values="0 0 0 0 0 0 0 0 0 0.866667 0 0 0 0 1 0 0 0 0.14 0"/><feBlend in2="BackgroundImageFix" result="effect1_dropShadow_518_8391"/><feBlend in="SourceGraphic" in2="BackgroundImageFix" result="shape"/><feTurbulence type="fractalNoise" baseFrequency="2 2" stitchTiles="stitch" numOctaves="3" result="noise" seed="9976"/><feColorMatrix in="noise" type="luminanceToAlpha" result="alphaNoise"/><feComponentTransfer in="alphaNoise" result="coloredNoise1"><feFuncA type="discrete" tableValues="1 1 1 1 1 1 1 1 1 1 1 1 1 1 1 1 1 1 1 1 1 1 1 1 1 1 1 1 1 1 1 1 1 1 1 1 1 1 1 1 1 1 1 1 1 1 1 1 1 1 1 0 0 0 0 0 0 0 0 0 0 0 0 0 0 0 0 0 0 0 0 0 0 0 0 0 0 0 0 0 0 0 0 0 0 0 0 0 0 0 0 0 0 0 0 0 0 0 0 0"/></feComponentTransfer><feComposite operator="in" in2="shape" in="coloredNoise1" result="noise1Clipped"/><feFlood flood-color="rgba(255, 255, 255, 0.25)" result="color1Flood"/><feComposite operator="in" in2="noise1Clipped" in="color1Flood" result="color1"/><feMerge result="effect2_noise_518_8391"><feMergeNode in="shape"/><feMergeNode in="color1"/></feMerge><feBlend in="effect2_noise_518_8391" in2="effect1_dropShadow_518_8391" result="effect2_noise_518_8391"/></filter></defs></svg>