<svg width="387" height="369" fill="none" xmlns="http://www.w3.org/2000/svg"><g filter="url(#a)"><path d="M193.5 62.843c69.953 0 126.658 56.619 126.658 126.456 0 69.838-56.705 126.457-126.658 126.457-69.952 0-126.657-56.619-126.657-126.457 0-69.837 56.705-126.456 126.657-126.456z" stroke="#AF96FF" stroke-width="3" shape-rendering="crispEdges"/></g><g filter="url(#b)"><mask id="c" fill="#fff"><path d="M373 189.299c0-29.485-7.28-58.516-21.195-84.521a179.372 179.372 0 00-58.58-64.56 179.683 179.683 0 00-168.417-16.57 179.488 179.488 0 00-70.063 51.905 179.211 179.211 0 00-37.296 78.767 179.105 179.105 0 004.28 87.027 179.253 179.253 0 0044.845 74.736l37.292-37.25a126.594 126.594 0 01-31.67-52.778 126.484 126.484 0 01-3.022-61.458 126.555 126.555 0 0126.338-55.624 126.754 126.754 0 0149.478-36.655 126.894 126.894 0 01118.935 11.7 126.672 126.672 0 0141.369 45.593 126.506 126.506 0 0114.968 59.688H373z"/></mask><path d="M373 189.299c0-29.485-7.28-58.516-21.195-84.521a179.372 179.372 0 00-58.58-64.56 179.683 179.683 0 00-168.417-16.57 179.488 179.488 0 00-70.063 51.905 179.211 179.211 0 00-37.296 78.767 179.105 179.105 0 004.28 87.027 179.253 179.253 0 0044.845 74.736l37.292-37.25a126.594 126.594 0 01-31.67-52.778 126.484 126.484 0 01-3.022-61.458 126.555 126.555 0 0126.338-55.624 126.754 126.754 0 0149.478-36.655 126.894 126.894 0 01118.935 11.7 126.672 126.672 0 0141.369 45.593 126.506 126.506 0 0114.968 59.688H373z" stroke="#AF96FF" stroke-width="6" shape-rendering="crispEdges" mask="url(#c)"/></g><defs><filter id="a" x="51.343" y="51.343" width="284.314" height="283.913" filterUnits="userSpaceOnUse" color-interpolation-filters="sRGB"><feFlood flood-opacity="0" result="BackgroundImageFix"/><feColorMatrix in="SourceAlpha" values="0 0 0 0 0 0 0 0 0 0 0 0 0 0 0 0 0 0 127 0" result="hardAlpha"/><feMorphology radius="10" operator="dilate" in="SourceAlpha" result="effect1_dropShadow_1092_422"/><feOffset dy="4"/><feGaussianBlur stdDeviation="2"/><feComposite in2="hardAlpha" operator="out"/><feColorMatrix values="0 0 0 0 0.666667 0 0 0 0 0 0 0 0 0 1 0 0 0 0.14 0"/><feBlend in2="BackgroundImageFix" result="effect1_dropShadow_1092_422"/><feBlend in="SourceGraphic" in2="BackgroundImageFix" result="shape"/><feTurbulence type="fractalNoise" baseFrequency="2 2" stitchTiles="stitch" numOctaves="3" result="noise" seed="9976"/><feColorMatrix in="noise" type="luminanceToAlpha" result="alphaNoise"/><feComponentTransfer in="alphaNoise" result="coloredNoise1"><feFuncA type="discrete" tableValues="1 1 1 1 1 1 1 1 1 1 1 1 1 1 1 1 1 1 1 1 1 1 1 1 1 1 1 1 1 1 1 1 1 1 1 1 1 1 1 1 1 1 1 1 1 1 1 1 1 1 1 0 0 0 0 0 0 0 0 0 0 0 0 0 0 0 0 0 0 0 0 0 0 0 0 0 0 0 0 0 0 0 0 0 0 0 0 0 0 0 0 0 0 0 0 0 0 0 0 0"/></feComponentTransfer><feComposite operator="in" in2="shape" in="coloredNoise1" result="noise1Clipped"/><feFlood flood-color="rgba(255, 255, 255, 0.25)" result="color1Flood"/><feComposite operator="in" in2="noise1Clipped" in="color1Flood" result="color1"/><feMerge result="effect2_noise_1092_422"><feMergeNode in="shape"/><feMergeNode in="color1"/></feMerge><feBlend in="effect2_noise_1092_422" in2="effect1_dropShadow_1092_422" result="effect2_noise_1092_422"/></filter><filter id="b" x="0" y="0" width="387" height="334.083" filterUnits="userSpaceOnUse" color-interpolation-filters="sRGB"><feFlood flood-opacity="0" result="BackgroundImageFix"/><feColorMatrix in="SourceAlpha" values="0 0 0 0 0 0 0 0 0 0 0 0 0 0 0 0 0 0 127 0" result="hardAlpha"/><feMorphology radius="10" operator="dilate" in="SourceAlpha" result="effect1_dropShadow_1092_422"/><feOffset dy="4"/><feGaussianBlur stdDeviation="2"/><feComposite in2="hardAlpha" operator="out"/><feColorMatrix values="0 0 0 0 0.666667 0 0 0 0 0 0 0 0 0 1 0 0 0 0.14 0"/><feBlend in2="BackgroundImageFix" result="effect1_dropShadow_1092_422"/><feBlend in="SourceGraphic" in2="BackgroundImageFix" result="shape"/><feTurbulence type="fractalNoise" baseFrequency="2 2" stitchTiles="stitch" numOctaves="3" result="noise" seed="9976"/><feColorMatrix in="noise" type="luminanceToAlpha" result="alphaNoise"/><feComponentTransfer in="alphaNoise" result="coloredNoise1"><feFuncA type="discrete" tableValues="1 1 1 1 1 1 1 1 1 1 1 1 1 1 1 1 1 1 1 1 1 1 1 1 1 1 1 1 1 1 1 1 1 1 1 1 1 1 1 1 1 1 1 1 1 1 1 1 1 1 1 0 0 0 0 0 0 0 0 0 0 0 0 0 0 0 0 0 0 0 0 0 0 0 0 0 0 0 0 0 0 0 0 0 0 0 0 0 0 0 0 0 0 0 0 0 0 0 0 0"/></feComponentTransfer><feComposite operator="in" in2="shape" in="coloredNoise1" result="noise1Clipped"/><feFlood flood-color="rgba(255, 255, 255, 0.25)" result="color1Flood"/><feComposite operator="in" in2="noise1Clipped" in="color1Flood" result="color1"/><feMerge result="effect2_noise_1092_422"><feMergeNode in="shape"/><feMergeNode in="color1"/></feMerge><feBlend in="effect2_noise_1092_422" in2="effect1_dropShadow_1092_422" result="effect2_noise_1092_422"/></filter></defs></svg>