<svg width="100" height="100" fill="none" xmlns="http://www.w3.org/2000/svg"><circle cx="49.953" cy="49.953" r="49.953" fill="#00EAFF"/><mask id="a" style="mask-type:luminance" maskUnits="userSpaceOnUse" x="17" y="15" width="67" height="71"><path d="M83.819 15H17v70.909h66.819V15z" fill="#fff"/></mask><g mask="url(#a)"><path d="M50.41 85.909c18.451 0 33.409-15.873 33.409-35.455C83.819 30.875 68.86 15 50.409 15 31.958 15 17 30.873 17 50.455c0 19.58 14.958 35.454 33.41 35.454z" fill="#7D2AE7"/><path d="M50.41 85.909c18.451 0 33.409-15.873 33.409-35.455C83.819 30.875 68.86 15 50.409 15 31.958 15 17 30.873 17 50.455c0 19.58 14.958 35.454 33.41 35.454z" fill="url(#b)"/><path d="M50.41 85.909c18.451 0 33.409-15.873 33.409-35.455C83.819 30.875 68.86 15 50.409 15 31.958 15 17 30.873 17 50.455c0 19.58 14.958 35.454 33.41 35.454z" fill="url(#c)"/><path d="M50.41 85.909c18.451 0 33.409-15.873 33.409-35.455C83.819 30.875 68.86 15 50.409 15 31.958 15 17 30.873 17 50.455c0 19.58 14.958 35.454 33.41 35.454z" fill="url(#d)"/><path d="M50.41 85.909c18.451 0 33.409-15.873 33.409-35.455C83.819 30.875 68.86 15 50.409 15 31.958 15 17 30.873 17 50.455c0 19.58 14.958 35.454 33.41 35.454z" fill="url(#e)"/><path d="M64.833 57.727c-.276 0-.519.247-.771.787-2.851 6.136-7.776 10.477-13.475 10.477-6.59 0-10.671-6.313-10.671-15.034 0-14.773 7.756-23.314 14.569-23.314 3.183 0 5.127 2.123 5.127 5.502 0 4.01-2.147 6.132-2.147 7.546 0 .635.373 1.02 1.11 1.02 2.965 0 6.444-3.615 6.444-8.722 0-4.95-4.061-8.59-10.873-8.59-11.26 0-21.265 11.077-21.265 26.403 0 11.863 6.384 19.703 16.233 19.703 10.455 0 16.5-11.038 16.5-14.621 0-.794-.383-1.157-.781-1.157z" fill="#072255"/></g><defs><radialGradient id="b" cx="0" cy="0" r="1" gradientTransform="matrix(33.6202 -41.65 39.2476 35.6782 29.907 77.848)" gradientUnits="userSpaceOnUse"><stop stop-color="#6420FF"/><stop offset="1" stop-color="#6420FF" stop-opacity="0"/></radialGradient><radialGradient id="c" cx="0" cy="0" r="1" gradientTransform="matrix(33.6735 50.4756 -47.5641 35.7348 34.69 23.061)" gradientUnits="userSpaceOnUse"><stop stop-color="#00C4CC"/><stop offset="0" stop-color="#00C4CC" stop-opacity=".721"/><stop offset="1" stop-color="#00C4CC" stop-opacity="0"/></radialGradient><radialGradient id="d" cx="0" cy="0" r="1" gradientTransform="matrix(35.9767 -38.4402 16.6593 17.5589 29.907 77.848)" gradientUnits="userSpaceOnUse"><stop stop-color="#6420FF"/><stop offset="1" stop-color="#6420FF" stop-opacity="0"/></radialGradient><radialGradient id="e" cx="0" cy="0" r="1" gradientTransform="matrix(20.9599 51.2037 -80.8299 37.262 44.325 24.554)" gradientUnits="userSpaceOnUse"><stop stop-color="#00C4CC" stop-opacity=".726"/><stop offset="0" stop-color="#00C4CC"/><stop offset="1" stop-color="#00C4CC" stop-opacity="0"/></radialGradient></defs></svg>