<svg width="100" height="100" fill="none" xmlns="http://www.w3.org/2000/svg"><circle cx="49.953" cy="49.953" r="49.953" fill="#00EAFF"/><path d="M38.054 76.69c-3.375-3.1-4.36-9.614-2.954-14.333 2.438 2.975 5.816 3.918 9.315 4.45 5.402.82 10.707.514 15.725-1.967.574-.284 1.105-.663 1.732-1.045.47 1.373.593 2.758.429 4.17-.4 3.434-2.101 6.088-4.807 8.1-1.082.804-2.227 1.523-3.344 2.282-3.433 2.331-4.362 5.065-3.072 9.043.03.097.058.193.127.43-1.753-.788-3.033-1.936-4.008-3.445-1.03-1.593-1.521-3.355-1.547-5.261-.013-.928-.013-1.864-.137-2.779-.303-2.23-1.345-3.228-3.307-3.285-2.014-.06-3.607 1.192-4.03 3.162-.032.151-.079.3-.126.476l.004.002z" fill="#fff"/><path d="M38.054 76.69c-3.375-3.1-4.36-9.614-2.954-14.333 2.438 2.975 5.816 3.918 9.315 4.45 5.402.82 10.707.514 15.725-1.967.574-.284 1.105-.663 1.732-1.045.47 1.373.593 2.758.429 4.17-.4 3.434-2.101 6.088-4.807 8.1-1.082.804-2.227 1.523-3.344 2.282-3.433 2.331-4.362 5.065-3.072 9.043.03.097.058.193.127.43-1.753-.788-3.033-1.936-4.008-3.445-1.03-1.593-1.521-3.355-1.547-5.261-.013-.928-.013-1.864-.137-2.779-.303-2.23-1.345-3.228-3.307-3.285-2.014-.06-3.607 1.192-4.03 3.162-.032.151-.079.3-.126.476l.004.002z" fill="url(#a)"/><path d="M18.791 61.57s9.994-4.892 20.016-4.892l7.556-23.5c.283-1.136 1.109-1.908 2.041-1.908.933 0 1.759.772 2.042 1.909l7.556 23.499c11.869 0 20.015 4.892 20.015 4.892S61.042 15.1 61.01 15.006c-.488-1.374-1.31-2.259-2.419-2.259H38.22c-1.109 0-1.898.885-2.418 2.26-.037.09-17.01 46.563-17.01 46.563z" fill="#fff"/><defs><linearGradient id="a" x1="34.488" y1="2386.34" x2="3195.04" y2="900.359" gradientUnits="userSpaceOnUse"><stop stop-color="#072255"/><stop offset="1" stop-color="#7293FF"/></linearGradient></defs></svg>