<svg width="100" height="100" fill="none" xmlns="http://www.w3.org/2000/svg"><circle cx="49.953" cy="49.953" r="49.953" fill="#00EAFF"/><path d="M66.52 16.65H31.916c-8.431 0-15.266 6.676-15.266 14.91v33.798c0 8.235 6.835 14.91 15.266 14.91h34.602c8.432 0 15.266-6.675 15.266-14.91V31.561c0-8.235-6.834-14.91-15.266-14.91z" fill="#00EAFF"/><path d="M27.39 48.459c0 8.438 5.021 15.73 12.302 19.186L29.28 39.784a20.82 20.82 0 00-1.89 8.676zM63.952 47.384c0-2.635-.97-4.46-1.8-5.88-1.107-1.756-2.144-3.243-2.144-4.999 0-1.96 1.522-3.784 3.665-3.784.097 0 .189.012.283.017-3.883-3.474-9.056-5.596-14.739-5.596-7.625 0-14.333 3.821-18.236 9.61.512.014.995.025 1.405.025 2.283 0 5.817-.27 5.817-.27 1.176-.069 1.315 1.62.14 1.755 0 0-1.183.136-2.499.203l7.948 23.092 4.777-13.992-3.4-9.1c-1.176-.068-2.29-.204-2.29-.204-1.175-.067-1.037-1.824.139-1.756 0 0 3.604.27 5.749.27 2.282 0 5.816-.27 5.816-.27 1.178-.068 1.316 1.62.14 1.756 0 0-1.184.136-2.498.203l7.888 22.917 2.177-7.105c.944-2.95 1.662-5.067 1.662-6.892z" fill="#072255"/><path d="M49.6 50.323l-6.548 18.586a22.307 22.307 0 0013.413-.34 1.843 1.843 0 01-.155-.294L49.6 50.323zM68.369 38.231c.094.68.147 1.408.147 2.192 0 2.163-.414 4.596-1.66 7.636L60.19 66.887c6.489-3.696 10.854-10.563 10.854-18.427 0-3.707-.97-7.192-2.674-10.229z" fill="#072255"/><path d="M49.217 23.61c-14.029 0-25.442 11.147-25.442 24.85 0 13.703 11.413 24.85 25.442 24.85 14.028 0 25.444-11.147 25.444-24.85 0-13.703-11.416-24.85-25.444-24.85zm0 48.562c-13.385 0-24.276-10.638-24.276-23.713 0-13.074 10.89-23.71 24.276-23.71 13.385 0 24.275 10.636 24.275 23.71 0 13.075-10.89 23.713-24.275 23.713z" fill="#072255"/></svg>