<svg width="100" height="100" fill="none" xmlns="http://www.w3.org/2000/svg"><circle cx="49.953" cy="49.953" r="49.953" fill="#00EAFF"/><path d="M46.834 57.178H35.536l-2.308 7.575c-.061.29-.304.484-.577.451h-5.71c-.334 0-.426-.193-.334-.58l9.78-29.878c.09-.323.182-.677.303-1.064.122-.677.182-1.386.182-2.095-.03-.161.092-.322.243-.355h7.867c.243 0 .364.097.395.258L56.462 64.69c.091.354 0 .515-.303.515H49.81c-.213.033-.425-.129-.486-.354l-2.49-7.671zm-9.537-6.542h7.715a47.808 47.808 0 00-.698-2.321c-.274-.87-.547-1.805-.82-2.772-.304-1-.578-1.966-.881-2.965a73.369 73.369 0 01-.82-2.869c-.243-.902-.456-1.74-.669-2.514h-.06a41.554 41.554 0 01-1.033 4.158c-.456 1.547-.911 3.159-1.397 4.77a66.09 66.09 0 01-1.337 4.513zM63.235 36.873c-1.002.033-1.974-.386-2.703-1.128-.698-.806-1.063-1.87-1.033-2.965-.03-1.096.365-2.127 1.094-2.869a3.77 3.77 0 012.703-1.128c1.185 0 2.096.387 2.764 1.128a4.216 4.216 0 011.002 2.869c.03 1.096-.334 2.16-1.063 2.965a3.462 3.462 0 01-2.764 1.128zM59.834 64.85V40.032c0-.322.12-.451.394-.451h6.014c.273 0 .395.16.395.451V64.85c0 .355-.122.516-.395.516h-5.953c-.304 0-.455-.194-.455-.516z" fill="#072255"/></svg>