<svg width="100" height="100" fill="none" xmlns="http://www.w3.org/2000/svg"><circle cx="49.953" cy="49.953" r="49.953" fill="#00EAFF"/><path d="M20.272 14.257l39.507-3.173c4.852-.453 6.1-.147 9.15 2.264l12.612 9.66c2.08 1.661 2.773 2.114 2.773 3.923v52.976c0 3.32-1.11 5.284-4.991 5.584l-45.878 3.02c-2.913.15-4.3-.303-5.826-2.417l-9.287-13.13c-1.666-2.417-2.356-4.225-2.356-6.34V19.535c0-2.714 1.11-4.978 4.296-5.278z" fill="#072255"/><path d="M59.779 11.084l-39.507 3.173c-3.187.3-4.296 2.564-4.296 5.278v47.09c0 2.114.69 3.922 2.356 6.34l9.287 13.129c1.525 2.114 2.913 2.567 5.826 2.416l45.878-3.02c3.88-.3 4.99-2.263 4.99-5.583V26.93c0-1.716-.623-2.21-2.458-3.675l-.317-.248-12.608-9.66c-3.051-2.411-4.299-2.717-9.151-2.264zm-25.297 14.98c-3.746.274-4.595.336-6.723-1.545l-5.41-4.678c-.55-.606-.273-1.361 1.112-1.512l37.979-3.017c3.19-.302 4.85.906 6.097 1.962l6.514 5.131c.279.153.971 1.056.138 1.056l-39.221 2.567-.486.036zm-4.367 53.39V34.48c0-1.964.555-2.87 2.216-3.022l45.047-2.867c1.528-.15 2.219.906 2.219 2.867v44.672c0 1.964-.279 3.626-2.773 3.776l-43.108 2.717c-2.494.15-3.6-.753-3.6-3.17zm42.553-42.561c.277 1.358 0 2.717-1.249 2.872l-2.078.448v33.204c-1.804 1.056-3.465 1.659-4.852 1.659-2.218 0-2.773-.756-4.434-3.017L46.468 48.816v22.486l4.298 1.058s0 2.717-3.468 2.717l-9.56.603c-.278-.605 0-2.114.969-2.414l2.496-.753V42.782l-3.465-.305c-.278-1.358.414-3.32 2.356-3.473l10.258-.75 14.137 23.542V40.968l-3.604-.45c-.278-1.664.831-2.872 2.216-3.02l9.567-.605z" fill="#00EAFF"/></svg>