<svg width="100" height="100" fill="none" xmlns="http://www.w3.org/2000/svg"><circle cx="49.953" cy="49.953" r="49.953" fill="#00EAFF"/><path d="M69.963 13.22H33.658c-8.846 0-16.016 7.61-16.016 16.998v38.526c0 9.388 7.17 16.997 16.016 16.997h36.305c8.845 0 16.016-7.61 16.016-16.997V30.218c0-9.387-7.17-16.997-16.016-16.997z" fill="#00EAFF"/><mask id="a" style="mask-type:luminance" maskUnits="userSpaceOnUse" x="33" y="21" width="37" height="57"><path d="M69.525 21.153h-35.6v56.656h35.6V21.153z" fill="#fff"/></mask><g mask="url(#a)"><path d="M42.828 77.81c4.911 0 8.898-4.231 8.898-9.443v-9.443h-8.898c-4.912 0-8.899 4.23-8.899 9.443 0 5.212 3.987 9.442 8.899 9.442z" fill="#0ACF83"/><path d="M33.93 49.48c0-5.212 3.986-9.442 8.898-9.442h8.898v18.885h-8.898c-4.912 0-8.899-4.23-8.899-9.442z" fill="#A259FF"/><path d="M33.93 30.595c0-5.212 3.986-9.442 8.898-9.442h8.898v18.885h-8.898c-4.912 0-8.899-4.23-8.899-9.443z" fill="#F24E1E"/><path d="M51.726 21.153h8.898c4.912 0 8.899 4.23 8.899 9.442 0 5.213-3.987 9.443-8.899 9.443h-8.898V21.153z" fill="#FF7262"/><path d="M69.523 49.48c0 5.213-3.987 9.443-8.899 9.443-4.911 0-8.898-4.23-8.898-9.442 0-5.213 3.987-9.443 8.898-9.443 4.912 0 8.899 4.23 8.899 9.443z" fill="#1ABCFE"/></g></svg>